<?xml version="1.0" encoding="utf-8"?>
<!-- Svg Vector Icons : http://www.onlinewebfonts.com/icon -->
<!DOCTYPE svg PUBLIC "-//W3C//DTD SVG 1.1//EN" "http://www.w3.org/Graphics/SVG/1.1/DTD/svg11.dtd">
<svg version="1.1" xmlns="http://www.w3.org/2000/svg" xmlns:xlink="http://www.w3.org/1999/xlink" x="0px" y="0px" viewBox="0 0 1000 1000" enable-background="new 0 0 1000 1000" xml:space="preserve">
<metadata> Svg Vector Icons : http://www.onlinewebfonts.com/icon </metadata>
<g><path d="M37.5,500"/><path d="M958.2,794.3l-81.8-95.5V395.5c0-174.9-133.1-319.3-303.4-337.2V45.7c0-19.7-16-35.7-35.7-35.7c-19.7,0-35.7,16-35.7,35.7v12.6C331.3,76.2,198.2,220.5,198.2,395.5v303.4l-81.8,95.5c-4.5,5.3-5.6,12.7-2.7,19.1c2.9,6.3,9.2,10.4,16.2,10.4h814.8c7,0,13.3-4.1,16.2-10.4C963.8,807.1,962.7,799.6,958.2,794.3z M198.2,770.3l53.5-71.4V395.5c0-157.5,128.1-285.6,285.6-285.6S822.8,238,822.8,395.5v303.4l53.5,71.4H198.2z"/><path d="M663.2,864.5c0,0.2,0.1,0.4,0.1,0.6c0,38-58.9,71.4-126,71.4s-126-33.4-126-71.4c0-0.2,0.1-0.4,0.1-0.6h-53.6c0,0.2,0,0.4,0,0.6c0,70.1,78.9,124.9,179.6,124.9c100.7,0,179.6-54.9,179.6-124.9c0-0.2,0-0.4,0-0.6H663.2z"/></g>
</svg>